<svg xmlns="http://www.w3.org/2000/svg" width="32" height="32" version="1.0"><path fill="#e44c4c" d="M1.6 30.4C-.7 28.1-.7 3.9 1.6 1.6c2.3-2.3 26.5-2.3 28.8 0 2.3 2.3 2.3 26.5 0 28.8-2.3 2.3-26.5 2.3-28.8 0z"/><g fill="#f7f7f7"><path d="M3.4 21.1c1-1.6-.6-7.1-2-7.1-.8 0-1.4-.9-1.4-2 0-1.9.7-2 11.5-2 11.8 0 13.5.7 9.2 3.8-1.3 1-1.6 2.1-1.1 4.8.6 3.1.4 3.4-1.9 3.4-2.2 0-2.5-.4-2.5-3.6 0-4.2-.2-4.4-3.8-4.7-2.7-.2-2.9.1-3.2 4.1-.3 3.7-.6 4.2-2.8 4.2-1.4 0-2.3-.4-2-.9zM23.4 20.9c-.3-.6 0-1.5.7-2 1.1-.7 1.1-.9.1-.9-.8 0-1.2-.9-1-2.2.4-2.9 5.8-3.8 7.8-1.4 1 1.3 1 1.6 0 1.6s-1 .3 0 1.5c2 2.4.4 4.5-3.4 4.5-1.9 0-3.8-.5-4.2-1.1z"/></g><text x="50%" y="50%" fill="#d3d3d3" dominant-baseline="middle" font-size="20" opacity=".5" text-anchor="middle" transform="rotate(-45 16 16)">
  </text></svg>