<svg xmlns="http://www.w3.org/2000/svg" aria-hidden="true" style="position: absolute; width: 0; height: 0; overflow: hidden;" version="1.1"><defs>
<symbol id="icon-TravelTrucks" viewBox="0 0 290 32">
<path fill="#475467" style="fill: var(--color1, #475467)" d="M288.838 15.333h-7.697c-0.041-0.475-0.207-0.884-0.501-1.227-0.292-0.343-0.672-0.606-1.135-0.788-0.457-0.192-0.96-0.288-1.517-0.288-0.717 0-1.333 0.131-1.847 0.394-0.516 0.263-0.768 0.636-0.757 1.121-0.011 0.343 0.137 0.662 0.439 0.955 0.311 0.293 0.913 0.52 1.803 0.682l4.727 0.849c2.383 0.434 4.156 1.167 5.318 2.197 1.171 1.020 1.762 2.389 1.773 4.106-0.011 1.657-0.506 3.096-1.485 4.318-0.971 1.212-2.3 2.151-3.985 2.818-1.677 0.656-3.593 0.985-5.743 0.985-3.556 0-6.338-0.727-8.348-2.182-2.001-1.454-3.117-3.374-3.349-5.758h8.303c0.111 0.738 0.476 1.308 1.090 1.712 0.627 0.394 1.414 0.591 2.364 0.591 0.768 0 1.399-0.131 1.894-0.394 0.506-0.263 0.764-0.636 0.772-1.121-0.009-0.445-0.233-0.798-0.666-1.061-0.425-0.263-1.092-0.475-2.001-0.636l-4.119-0.727c-2.374-0.414-4.151-1.202-5.333-2.364s-1.769-2.657-1.758-4.485c-0.011-1.616 0.414-2.985 1.271-4.106 0.868-1.131 2.106-1.99 3.712-2.576 1.617-0.596 3.531-0.894 5.743-0.894 3.364 0 6.016 0.697 7.955 2.091 1.95 1.394 2.974 3.323 3.076 5.788z"></path>
<path fill="#475467" style="fill: var(--color1, #475467)" d="M248.352 25.515l0.060-9.939h1.092l5.636-7.818h9.393l-9.455 12.182h-2.364l-4.363 5.576zM240.836 31.030v-31.030h8.365v31.030h-8.365zM255.2 31.030l-5.333-9.212 5.455-5.939 9.455 15.152h-9.577z"></path>
<path fill="#475467" style="fill: var(--color1, #475467)" d="M225.321 31.454c-2.526 0-4.687-0.5-6.485-1.5-1.798-1.010-3.177-2.414-4.137-4.212-0.96-1.808-1.439-3.904-1.439-6.288s0.479-4.475 1.439-6.273c0.96-1.808 2.338-3.212 4.137-4.212 1.798-1.010 3.959-1.515 6.485-1.515 2.283 0 4.258 0.414 5.924 1.242 1.677 0.818 2.974 1.98 3.893 3.485 0.919 1.495 1.385 3.253 1.395 5.273h-7.759c-0.111-1.222-0.465-2.152-1.060-2.788-0.587-0.646-1.344-0.97-2.272-0.97-0.727 0-1.365 0.212-1.909 0.636-0.546 0.414-0.971 1.045-1.274 1.894-0.303 0.838-0.454 1.894-0.454 3.167s0.151 2.333 0.454 3.182c0.303 0.838 0.727 1.47 1.274 1.894 0.544 0.414 1.182 0.621 1.909 0.621 0.617 0 1.161-0.141 1.636-0.424 0.474-0.293 0.858-0.717 1.152-1.273 0.303-0.566 0.484-1.252 0.544-2.061h7.759c-0.032 2.051-0.501 3.838-1.41 5.364-0.909 1.515-2.197 2.687-3.863 3.515-1.658 0.828-3.637 1.242-5.939 1.242z"></path>
<path fill="#475467" style="fill: var(--color1, #475467)" d="M200.637 20.848v-13.091h8.364v23.273h-7.939v-4.424h-0.243c-0.505 1.485-1.389 2.646-2.651 3.485-1.263 0.828-2.763 1.242-4.5 1.242-1.626 0-3.051-0.374-4.273-1.121-1.212-0.748-2.157-1.778-2.833-3.091-0.667-1.313-1.005-2.818-1.015-4.515v-14.849h8.364v13.091c0.010 1.152 0.303 2.056 0.879 2.712 0.586 0.657 1.404 0.985 2.455 0.985 0.697 0 1.298-0.147 1.803-0.439 0.515-0.303 0.909-0.727 1.182-1.273 0.283-0.556 0.419-1.217 0.409-1.985z"></path>
<path fill="#475467" style="fill: var(--color1, #475467)" d="M166.193 31.030v-23.273h8.121v4.424h0.242c0.424-1.636 1.096-2.833 2.015-3.591 0.929-0.758 2.015-1.136 3.258-1.136 0.364 0 0.722 0.030 1.076 0.091 0.364 0.051 0.712 0.126 1.045 0.227v7.136c-0.414-0.141-0.924-0.247-1.53-0.318s-1.126-0.106-1.561-0.106c-0.818 0-1.556 0.187-2.212 0.561-0.646 0.364-1.156 0.879-1.53 1.545-0.374 0.657-0.561 1.429-0.561 2.318v12.121h-8.364z"></path>
<path fill="#475467" style="fill: var(--color1, #475467)" d="M137.495 6.788v-6.788h26.97v6.788h-9.333v24.243h-8.303v-24.243h-9.333z"></path>
<path fill="#101828" style="fill: var(--color2, #101828)" d="M133.35 0v31.030h-8.364v-31.030h8.364z"></path>
<path fill="#101828" style="fill: var(--color2, #101828)" d="M109.326 31.454c-2.485 0-4.626-0.475-6.424-1.424-1.788-0.96-3.166-2.333-4.136-4.121-0.96-1.798-1.439-3.949-1.439-6.455 0-2.404 0.485-4.505 1.454-6.303s2.338-3.197 4.106-4.197 3.854-1.5 6.258-1.5c1.757 0 3.348 0.273 4.773 0.818s2.641 1.338 3.651 2.379c1.010 1.030 1.788 2.283 2.333 3.758s0.818 3.136 0.818 4.985v1.939h-20.788v-4.606h13.091c-0.010-0.667-0.182-1.253-0.515-1.758-0.323-0.515-0.763-0.914-1.318-1.197-0.546-0.293-1.167-0.439-1.864-0.439-0.677 0-1.298 0.146-1.864 0.439-0.566 0.283-1.020 0.677-1.364 1.182-0.333 0.505-0.51 1.096-0.53 1.773v4.97c0 0.747 0.157 1.414 0.47 2s0.763 1.045 1.348 1.379c0.586 0.333 1.293 0.5 2.121 0.5 0.576 0 1.101-0.081 1.576-0.242 0.485-0.162 0.899-0.394 1.242-0.697 0.343-0.313 0.596-0.687 0.758-1.121h7.636c-0.263 1.616-0.884 3.020-1.864 4.212-0.98 1.182-2.278 2.101-3.894 2.758-1.606 0.646-3.485 0.97-5.636 0.97z"></path>
<path fill="#101828" style="fill: var(--color2, #101828)" d="M95.651 7.758l-7.818 23.273h-9.697l-7.818-23.273h8.788l3.758 15.394h0.242l3.758-15.394h8.788z"></path>
<path fill="#101828" style="fill: var(--color2, #101828)" d="M53.453 31.394c-1.485 0-2.798-0.242-3.939-0.727-1.131-0.495-2.020-1.242-2.667-2.242s-0.97-2.273-0.97-3.818c0-1.273 0.217-2.359 0.652-3.258 0.434-0.909 1.040-1.651 1.818-2.227s1.682-1.015 2.712-1.318c1.040-0.303 2.161-0.5 3.364-0.591 1.303-0.101 2.348-0.222 3.136-0.364 0.798-0.151 1.374-0.359 1.727-0.621 0.353-0.273 0.53-0.631 0.53-1.076v-0.061c0-0.606-0.232-1.071-0.697-1.394s-1.061-0.485-1.788-0.485c-0.798 0-1.449 0.177-1.955 0.53-0.495 0.343-0.793 0.874-0.894 1.591h-7.697c0.101-1.414 0.551-2.717 1.348-3.909 0.808-1.202 1.985-2.162 3.53-2.879 1.545-0.727 3.475-1.091 5.788-1.091 1.667 0 3.162 0.197 4.485 0.591 1.323 0.384 2.449 0.924 3.379 1.621 0.929 0.687 1.636 1.495 2.121 2.424 0.495 0.919 0.742 1.919 0.742 3v15.939h-7.818v-3.273h-0.182c-0.465 0.869-1.030 1.571-1.697 2.106-0.657 0.535-1.409 0.924-2.258 1.167-0.838 0.242-1.763 0.364-2.773 0.364zM56.18 26.121c0.636 0 1.232-0.131 1.788-0.394 0.566-0.263 1.025-0.642 1.379-1.136s0.53-1.096 0.53-1.803v-1.939c-0.222 0.091-0.46 0.177-0.712 0.258-0.243 0.081-0.505 0.157-0.788 0.227-0.273 0.071-0.566 0.136-0.879 0.197-0.303 0.061-0.621 0.116-0.954 0.167-0.646 0.101-1.177 0.268-1.591 0.5-0.404 0.222-0.707 0.5-0.909 0.834-0.192 0.323-0.288 0.687-0.288 1.091 0 0.647 0.227 1.142 0.682 1.485s1.035 0.515 1.742 0.515z"></path>
<path fill="#101828" style="fill: var(--color2, #101828)" d="M28.698 31.030v-23.273h8.121v4.424h0.242c0.424-1.636 1.096-2.833 2.015-3.591 0.929-0.758 2.015-1.136 3.258-1.136 0.364 0 0.722 0.030 1.076 0.091 0.364 0.051 0.712 0.126 1.045 0.227v7.136c-0.414-0.141-0.924-0.247-1.53-0.318s-1.126-0.106-1.561-0.106c-0.818 0-1.555 0.187-2.212 0.561-0.646 0.364-1.156 0.879-1.53 1.545-0.374 0.657-0.561 1.429-0.561 2.318v12.121h-8.364z"></path>
<path fill="#101828" style="fill: var(--color2, #101828)" d="M0 6.788v-6.788h26.97v6.788h-9.333v24.243h-8.303v-24.243h-9.333z"></path>
</symbol><symbol id="icon-map" viewBox="0 0 32 32"><path d="M31.634 0.226c0.115 0.094 0.207 0.212 0.27 0.346s0.096 0.28 0.096 0.428v28c-0 0.231-0.080 0.455-0.227 0.634s-0.351 0.301-0.577 0.346l-10 2c-0.129 0.026-0.263 0.026-0.392 0l-9.804-1.96-9.804 1.96c-0.145 0.029-0.295 0.025-0.438-0.010s-0.277-0.103-0.392-0.197c-0.114-0.094-0.207-0.212-0.27-0.345s-0.096-0.28-0.096-0.428v-28c0-0.231 0.080-0.455 0.227-0.634s0.351-0.301 0.577-0.346l10-2c0.129-0.026 0.263-0.026 0.392 0l9.804 1.96 9.804-1.96c0.145-0.029 0.295-0.026 0.438 0.010s0.277 0.103 0.392 0.196zM20 3.82l-8-1.6v25.96l8 1.6v-25.96zM22 29.78l8-1.6v-25.96l-8 1.6v25.96zM10 28.18v-25.96l-8 1.6v25.96l8-1.6z"/></symbol>
<symbol id="icon-rating-gray" viewBox="0 0 32 32"><path fill="#F2F4F7" d="M16.123 1.788c0.4-0.759 1.487-0.759 1.887 0l4.028 7.635c0.154 0.293 0.436 0.497 0.761 0.553l8.506 1.472c0.845 0.146 1.181 1.179 0.583 1.794l-6.017 6.19c-0.23 0.237-0.338 0.568-0.291 0.895l1.229 8.544c0.122 0.849-0.757 1.488-1.526 1.109l-7.747-3.809c-0.297-0.146-0.645-0.146-0.941 0l-7.747 3.809c-0.77 0.378-1.649-0.26-1.526-1.109l1.229-8.544c0.047-0.327-0.060-0.658-0.291-0.895l-6.016-6.19c-0.598-0.615-0.262-1.648 0.583-1.794l8.506-1.472c0.326-0.056 0.607-0.261 0.762-0.553l4.028-7.635z" style="fill: var(--color1, #F2F4F7)"/></symbol>
<symbol id="icon-rating-yellow" viewBox="0 0 32 32"><path fill="#FFC531" d="M16.123 1.788c0.4-0.759 1.487-0.759 1.887 0l4.028 7.635c0.154 0.293 0.436 0.497 0.761 0.553l8.506 1.472c0.845 0.146 1.181 1.179 0.583 1.794l-6.017 6.19c-0.23 0.237-0.338 0.568-0.291 0.895l1.229 8.544c0.122 0.849-0.757 1.488-1.526 1.109l-7.747-3.809c-0.297-0.146-0.645-0.146-0.941 0l-7.747 3.809c-0.77 0.378-1.649-0.26-1.526-1.109l1.229-8.544c0.047-0.327-0.060-0.658-0.291-0.895l-6.016-6.19c-0.598-0.615-0.262-1.648 0.583-1.794l8.506-1.472c0.326-0.056 0.607-0.261 0.762-0.553l4.028-7.635z" style="fill: var(--color1, #FFC531)"/></symbol>
<symbol id="icon-heart" viewBox="0 0 32 32"><path d="M16 13.139l-1.788-3.578c-0.444-0.886-1.214-2.16-2.304-3.19-1.072-1.014-2.356-1.704-3.908-1.704-3.352 0-6 2.652-6 5.84 0 2.422 1.108 4.132 3.736 6.74 0.674 0.668 1.442 1.39 2.292 2.186 2.216 2.080 4.972 4.668 7.972 8.128 3-3.46 5.756-6.048 7.972-8.128 0.85-0.796 1.62-1.52 2.292-2.186 2.628-2.608 3.736-4.318 3.736-6.74 0-3.188-2.648-5.84-6-5.84-1.554 0-2.836 0.69-3.908 1.704-1.090 1.030-1.86 2.304-2.304 3.19l-1.788 3.578zM16.784 29.723c-0.096 0.114-0.216 0.206-0.352 0.269s-0.283 0.095-0.432 0.095-0.297-0.033-0.432-0.095c-0.135-0.063-0.255-0.155-0.352-0.269-3.202-3.804-6.1-6.524-8.486-8.762-4.13-3.878-6.73-6.316-6.73-10.454 0-4.33 3.58-7.84 8-7.84 3.2 0 5.438 2.1 6.808 4.016 0.52 0.73 0.916 1.432 1.192 1.984 0.346-0.691 0.745-1.354 1.192-1.984 1.37-1.918 3.608-4.016 6.808-4.016 4.42 0 8 3.51 8 7.84 0 4.138-2.6 6.576-6.73 10.454-2.386 2.24-5.284 4.962-8.486 8.762z"/></symbol>
<symbol id="icon-drop" viewBox="0 0 32 32"><path stroke-linecap="butt" stroke-linejoin="miter" stroke-miterlimit="10" stroke-width="2" d="M25 20c0 5.523-3.477 9-9 9s-9-3.477-9-9c0-5.927 6.452-13.928 8.431-16.242 0.070-0.082 0.158-0.148 0.256-0.194s0.205-0.069 0.314-0.069c0.108 0 0.215 0.023 0.314 0.069s0.186 0.111 0.256 0.194c1.978 2.314 8.43 10.316 8.43 16.242z"/><path stroke-linecap="round" stroke-linejoin="round" stroke-miterlimit="4" stroke-width="2" d="M21.5 20.5c0 1.194-0.474 2.338-1.318 3.182s-1.988 1.318-3.182 1.318"/></symbol>
<symbol id="icon-gas-stove" viewBox="0 0 32 32">
<path d="M6.347 1.528c-1.245 0.13-1.772 0.259-2.503 0.614-0.473 0.229-0.621 0.334-0.994 0.708-0.374 0.373-0.479 0.521-0.708 0.994-0.287 0.592-0.44 1.113-0.552 1.889-0.102 0.704-0.102 19.83 0 20.534 0.112 0.776 0.265 1.297 0.552 1.889 0.229 0.473 0.334 0.621 0.708 0.994s0.52 0.479 0.994 0.708c0.576 0.279 0.931 0.39 1.703 0.531 0.396 0.072 1.656 0.086 9.973 0.104 6.873 0.016 9.716 0.005 10.226-0.039 1.020-0.089 1.739-0.266 2.408-0.593 0.473-0.231 0.625-0.339 0.996-0.711 0.372-0.372 0.48-0.523 0.712-0.996 0.31-0.635 0.496-1.368 0.588-2.31 0.078-0.805 0.078-18.883 0-19.688-0.092-0.942-0.278-1.675-0.588-2.31-0.232-0.473-0.34-0.624-0.712-0.996-0.373-0.374-0.52-0.479-0.994-0.708-0.576-0.279-0.931-0.39-1.703-0.531-0.398-0.073-1.639-0.084-10.186-0.093-5.354-0.005-9.818 0-9.92 0.010zM25.056 3.894c2.488 0.151 2.899 0.562 3.050 3.050 0.070 1.153 0.070 16.959 0 18.112-0.151 2.488-0.562 2.899-3.050 3.050-1.153 0.070-16.959 0.070-18.112 0-2.488-0.151-2.899-0.562-3.050-3.050-0.070-1.153-0.070-16.959 0-18.112 0.106-1.743 0.367-2.385 1.101-2.71 0.389-0.172 1.021-0.289 1.816-0.337 1.036-0.062 17.226-0.065 18.245-0.003zM15.52 5.578c-0.409 0.178-0.64 0.514-0.689 1.003l-0.031 0.315-0.427 0.117c-2.36 0.648-4.045 2.334-4.693 4.694l-0.117 0.426-0.315 0.031c-0.357 0.036-0.57 0.132-0.779 0.351-0.413 0.436-0.413 1.201 0 1.636 0.209 0.22 0.422 0.316 0.781 0.351l0.316 0.031 0.116 0.427c0.642 2.357 2.334 4.049 4.691 4.691l0.427 0.116 0.031 0.317c0.035 0.358 0.131 0.571 0.351 0.78 0.436 0.414 1.2 0.414 1.636 0 0.219-0.208 0.316-0.422 0.351-0.779l0.031-0.314 0.267-0.074c1.506-0.415 2.554-1.048 3.457-2.086 0.69-0.794 1.11-1.613 1.44-2.811l0.073-0.267 0.315-0.031c0.357-0.035 0.57-0.131 0.779-0.351 0.413-0.435 0.413-1.2 0-1.636-0.209-0.219-0.422-0.315-0.779-0.351l-0.315-0.031-0.073-0.266c-0.384-1.383-0.877-2.268-1.754-3.144-0.835-0.836-1.791-1.383-2.983-1.707l-0.427-0.116-0.031-0.317c-0.049-0.497-0.282-0.832-0.701-1.007-0.249-0.104-0.704-0.103-0.948 0.002zM15.092 9.438c0.031 0.058 0.17 0.172 0.309 0.254 0.208 0.122 0.314 0.148 0.599 0.146 0.388-0.002 0.625-0.1 0.868-0.36l0.149-0.16 0.323 0.097c1.077 0.326 2.252 1.501 2.578 2.578l0.098 0.323-0.16 0.149c-0.234 0.216-0.379 0.524-0.379 0.866 0 0.328 0.134 0.624 0.349 0.838l0.188 0.188-0.097 0.319c-0.325 1.074-1.501 2.25-2.577 2.575l-0.323 0.098-0.149-0.16c-0.244-0.261-0.48-0.359-0.868-0.359s-0.624 0.098-0.868 0.359l-0.149 0.16-0.323-0.098c-1.077-0.326-2.252-1.501-2.578-2.578l-0.098-0.322 0.16-0.15c0.262-0.244 0.359-0.48 0.359-0.868s-0.097-0.624-0.359-0.868l-0.16-0.149 0.098-0.323c0.313-1.032 1.38-2.137 2.45-2.534 0.401-0.15 0.49-0.153 0.56-0.021zM7.493 24.261c-0.909 0.421-0.885 1.777 0.039 2.163 0.171 0.071 0.6 0.083 3.146 0.081 2.756-0.001 2.963-0.007 3.162-0.099 0.894-0.414 0.894-1.731 0-2.145-0.2-0.092-0.405-0.099-3.173-0.099s-2.974 0.007-3.174 0.099zM23.493 24.261c-0.428 0.199-0.666 0.591-0.666 1.099 0 0.358 0.126 0.633 0.402 0.875 0.254 0.223 0.413 0.281 0.771 0.281s0.517-0.058 0.771-0.281c0.28-0.246 0.403-0.517 0.401-0.886-0.003-0.705-0.486-1.191-1.184-1.188-0.179 0.003-0.349 0.040-0.504 0.103l0.009-0.003z"></path>
</symbol>
<symbol id="icon-microwave" viewBox="0 0 32 32">
<path d="M4.822 4.377c-0.779 0.093-1.464 0.438-2.069 1.043-0.643 0.643-0.952 1.29-1.050 2.198-0.036 0.338-0.049 3.115-0.038 8.089 0.016 7.013 0.024 7.597 0.11 7.893 0.298 1.024 1.018 1.899 1.932 2.348 0.611 0.301 0.891 0.351 2.141 0.384l1.129 0.029 0.019 0.966c0.020 1.003 0.038 1.094 0.277 1.358 0.181 0.2 0.411 0.292 0.727 0.292s0.546-0.092 0.727-0.292c0.239-0.264 0.257-0.355 0.277-1.365l0.020-0.973h13.952l0.020 0.973c0.020 1.010 0.038 1.101 0.277 1.365 0.181 0.2 0.411 0.292 0.727 0.292s0.546-0.092 0.727-0.292c0.239-0.264 0.257-0.355 0.277-1.358l0.019-0.966 1.129-0.029c1.25-0.033 1.53-0.083 2.141-0.384 0.927-0.455 1.656-1.35 1.933-2.375 0.088-0.323 0.094-0.872 0.094-8.24s-0.006-7.916-0.094-8.24c-0.361-1.285-1.346-2.278-2.599-2.645l-0.027-0.007c-0.3-0.087-1.006-0.094-11.36-0.101-6.072-0.004-11.21 0.013-11.418 0.037zM27.272 6.455c0.387 0.145 0.795 0.553 0.94 0.94 0.107 0.285 0.108 0.383 0.108 7.938 0 7.556-0.001 7.653-0.108 7.939-0.145 0.387-0.553 0.795-0.94 0.94-0.287 0.107-0.367 0.108-11.272 0.108s-10.985-0.001-11.272-0.108c-0.387-0.145-0.795-0.553-0.94-0.94-0.107-0.286-0.108-0.383-0.108-7.939 0-7.555 0.001-7.653 0.108-7.938 0.141-0.377 0.553-0.795 0.925-0.937 0.269-0.104 0.453-0.106 11.272-0.109 10.924-0.002 11-0.002 11.287 0.106zM8.935 9.713c-0.444 0.064-0.853 0.284-1.229 0.66-0.388 0.388-0.593 0.782-0.664 1.28-0.071 0.495-0.071 6.866 0 7.36 0.071 0.498 0.276 0.893 0.664 1.281s0.783 0.593 1.281 0.664c0.498 0.071 8.195 0.071 8.693 0s0.892-0.276 1.281-0.664c0.388-0.388 0.592-0.783 0.664-1.281 0.070-0.494 0.070-6.865 0-7.36-0.072-0.498-0.276-0.892-0.664-1.28s-0.783-0.593-1.281-0.664c-0.461-0.066-8.29-0.063-8.745 0.004zM23.74 9.706c-0.388 0.094-0.674 0.437-0.726 0.87-0.018 0.153-0.026 2.401-0.017 4.997 0.015 4.273 0.025 4.735 0.105 4.88 0.101 0.184 0.28 0.357 0.471 0.456 0.186 0.096 0.686 0.086 0.887-0.018 0.205-0.107 0.433-0.37 0.487-0.562 0.052-0.186 0.052-9.805 0-9.992-0.052-0.182-0.28-0.454-0.46-0.546-0.15-0.068-0.325-0.108-0.509-0.108-0.084 0-0.166 0.008-0.246 0.024l0.008-0.001zM17.556 11.768c0.092 0.084 0.097 0.265 0.097 3.556 0 3.152-0.008 3.476-0.088 3.565-0.084 0.093-0.285 0.098-4.222 0.098-3.772 0-4.143-0.008-4.232-0.089-0.093-0.083-0.098-0.264-0.098-3.555 0-3.152 0.008-3.477 0.089-3.565 0.084-0.093 0.285-0.098 4.222-0.098 3.772 0 4.143 0.008 4.232 0.088z"></path>
</symbol>
<symbol id="icon-fridge" viewBox="0 0 32 32"><path d="M23.667 9.333c0-0.265-0.105-0.52-0.293-0.707s-0.442-0.293-0.707-0.293c-0.265 0-0.52 0.105-0.707 0.293s-0.293 0.442-0.293 0.707v2.667c0 0.265 0.105 0.52 0.293 0.707s0.442 0.293 0.707 0.293c0.265 0 0.52-0.105 0.707-0.293s0.293-0.442 0.293-0.707v-2.667zM23.667 18.667c0-0.265-0.105-0.52-0.293-0.707s-0.442-0.293-0.707-0.293c-0.265 0-0.52 0.105-0.707 0.293s-0.293 0.442-0.293 0.707v2.667c0 0.265 0.105 0.52 0.293 0.707s0.442 0.293 0.707 0.293c0.265 0 0.52-0.105 0.707-0.293s0.293-0.442 0.293-0.707v-2.667z"/><path d="M16.075 1.667h-0.149c-2.451 0-4.392 0-5.911 0.204-1.563 0.211-2.828 0.653-3.827 1.651-0.997 0.999-1.44 2.264-1.651 3.827-0.204 1.52-0.204 3.46-0.204 5.911v4.149c0 2.451 0 4.392 0.204 5.911 0.211 1.563 0.653 2.828 1.651 3.827 0.613 0.612 1.325 1.015 2.145 1.284v0.904c0 0.552 0.448 1 1 1h1.333c0.265 0 0.52-0.105 0.707-0.293s0.293-0.442 0.293-0.707v-0.395c1.209 0.061 2.62 0.061 4.259 0.061h0.149c1.64 0 3.049 0 4.259-0.061v0.395c0 0.552 0.448 1 1 1h1.333c0.265 0 0.52-0.105 0.707-0.293s0.293-0.442 0.293-0.707v-0.904c0.82-0.269 1.533-0.672 2.145-1.284 0.997-0.999 1.44-2.264 1.651-3.827 0.204-1.52 0.204-3.46 0.204-5.911v-4.148c0-2.451 0-4.392-0.204-5.911-0.211-1.563-0.653-2.828-1.651-3.827-0.999-0.997-2.264-1.44-3.827-1.651-1.52-0.204-3.46-0.204-5.911-0.204zM7.603 4.936c0.564-0.564 1.337-0.903 2.679-1.083 1.371-0.184 3.176-0.187 5.719-0.187s4.349 0.003 5.72 0.187c1.34 0.18 2.113 0.519 2.677 1.083s0.903 1.337 1.083 2.679c0.184 1.371 0.187 3.176 0.187 5.719v1h-19.333v-1c0-2.543 0.003-4.348 0.187-5.72 0.18-1.34 0.519-2.113 1.083-2.677zM6.333 16.333h19.333v1c0 2.543-0.003 4.349-0.187 5.72-0.18 1.34-0.519 2.113-1.083 2.677s-1.337 0.903-2.679 1.083c-1.371 0.184-3.176 0.187-5.719 0.187s-4.348-0.003-5.72-0.187c-1.34-0.18-2.113-0.519-2.677-1.083s-0.903-1.337-1.083-2.679c-0.184-1.369-0.187-3.176-0.187-5.719v-1z"/></symbol>
<symbol id="icon-grid-3x3" viewBox="0 0 32 32"><path d="M8 4v4h-4v-4h4zM10 28v-4c0-0.53-0.211-1.039-0.586-1.414s-0.884-0.586-1.414-0.586h-4c-0.53 0-1.039 0.211-1.414 0.586s-0.586 0.884-0.586 1.414v4c0 0.53 0.211 1.039 0.586 1.414s0.884 0.586 1.414 0.586h4c0.53 0 1.039-0.211 1.414-0.586s0.586-0.884 0.586-1.414zM10 18v-4c0-0.53-0.211-1.039-0.586-1.414s-0.884-0.586-1.414-0.586h-4c-0.53 0-1.039 0.211-1.414 0.586s-0.586 0.884-0.586 1.414v4c0 0.53 0.211 1.039 0.586 1.414s0.884 0.586 1.414 0.586h4c0.53 0 1.039-0.211 1.414-0.586s0.586-0.884 0.586-1.414zM10 8v-4c0-0.53-0.211-1.039-0.586-1.414s-0.884-0.586-1.414-0.586h-4c-0.53 0-1.039 0.211-1.414 0.586s-0.586 0.884-0.586 1.414v4c0 0.53 0.211 1.039 0.586 1.414s0.884 0.586 1.414 0.586h4c0.53 0 1.039-0.211 1.414-0.586s0.586-0.884 0.586-1.414zM20 28v-4c0-0.53-0.211-1.039-0.586-1.414s-0.884-0.586-1.414-0.586h-4c-0.53 0-1.039 0.211-1.414 0.586s-0.586 0.884-0.586 1.414v4c0 0.53 0.211 1.039 0.586 1.414s0.884 0.586 1.414 0.586h4c0.53 0 1.039-0.211 1.414-0.586s0.586-0.884 0.586-1.414zM20 18v-4c0-0.53-0.211-1.039-0.586-1.414s-0.884-0.586-1.414-0.586h-4c-0.53 0-1.039 0.211-1.414 0.586s-0.586 0.884-0.586 1.414v4c0 0.53 0.211 1.039 0.586 1.414s0.884 0.586 1.414 0.586h4c0.53 0 1.039-0.211 1.414-0.586s0.586-0.884 0.586-1.414zM20 8v-4c0-0.53-0.211-1.039-0.586-1.414s-0.884-0.586-1.414-0.586h-4c-0.53 0-1.039 0.211-1.414 0.586s-0.586 0.884-0.586 1.414v4c0 0.53 0.211 1.039 0.586 1.414s0.884 0.586 1.414 0.586h4c0.53 0 1.039-0.211 1.414-0.586s0.586-0.884 0.586-1.414zM18 4v4h-4v-4h4zM28 4v4h-4v-4h4zM8 14v4h-4v-4h4zM18 14v4h-4v-4h4zM28 14h-4v4h4v-4zM8 24v4h-4v-4h4zM18 24v4h-4v-4h4zM28 24v4h-4v-4h4zM24 2c-0.53 0-1.039 0.211-1.414 0.586s-0.586 0.884-0.586 1.414v4c0 0.53 0.211 1.039 0.586 1.414s0.884 0.586 1.414 0.586h4c0.53 0 1.039-0.211 1.414-0.586s0.586-0.884 0.586-1.414v-4c0-0.53-0.211-1.039-0.586-1.414s-0.884-0.586-1.414-0.586h-4zM22 14c0-0.53 0.211-1.039 0.586-1.414s0.884-0.586 1.414-0.586h4c0.53 0 1.039 0.211 1.414 0.586s0.586 0.884 0.586 1.414v4c0 0.53-0.211 1.039-0.586 1.414s-0.884 0.586-1.414 0.586h-4c-0.53 0-1.039-0.211-1.414-0.586s-0.586-0.884-0.586-1.414v-4zM24 22c-0.53 0-1.039 0.211-1.414 0.586s-0.586 0.884-0.586 1.414v4c0 0.53 0.211 1.039 0.586 1.414s0.884 0.586 1.414 0.586h4c0.53 0 1.039-0.211 1.414-0.586s0.586-0.884 0.586-1.414v-4c0-0.53-0.211-1.039-0.586-1.414s-0.884-0.586-1.414-0.586h-4z"/></symbol>
<symbol id="icon-grid" viewBox="0 0 32 32"><path d="M2 5c0-0.796 0.316-1.559 0.879-2.121s1.326-0.879 2.121-0.879h6c0.796 0 1.559 0.316 2.121 0.879s0.879 1.326 0.879 2.121v6c0 0.796-0.316 1.559-0.879 2.121s-1.326 0.879-2.121 0.879h-6c-0.796 0-1.559-0.316-2.121-0.879s-0.879-1.326-0.879-2.121v-6zM5 4c-0.265 0-0.52 0.105-0.707 0.293s-0.293 0.442-0.293 0.707v6c0 0.265 0.105 0.52 0.293 0.707s0.442 0.293 0.707 0.293h6c0.265 0 0.52-0.105 0.707-0.293s0.293-0.442 0.293-0.707v-6c0-0.265-0.105-0.52-0.293-0.707s-0.442-0.293-0.707-0.293h-6zM18 5c0-0.796 0.316-1.559 0.879-2.121s1.326-0.879 2.121-0.879h6c0.796 0 1.559 0.316 2.121 0.879s0.879 1.326 0.879 2.121v6c0 0.796-0.316 1.559-0.879 2.121s-1.326 0.879-2.121 0.879h-6c-0.796 0-1.559-0.316-2.121-0.879s-0.879-1.326-0.879-2.121v-6zM21 4c-0.265 0-0.52 0.105-0.707 0.293s-0.293 0.442-0.293 0.707v6c0 0.265 0.105 0.52 0.293 0.707s0.442 0.293 0.707 0.293h6c0.265 0 0.52-0.105 0.707-0.293s0.293-0.442 0.293-0.707v-6c0-0.265-0.105-0.52-0.293-0.707s-0.442-0.293-0.707-0.293h-6zM2 21c0-0.796 0.316-1.559 0.879-2.121s1.326-0.879 2.121-0.879h6c0.796 0 1.559 0.316 2.121 0.879s0.879 1.326 0.879 2.121v6c0 0.796-0.316 1.559-0.879 2.121s-1.326 0.879-2.121 0.879h-6c-0.796 0-1.559-0.316-2.121-0.879s-0.879-1.326-0.879-2.121v-6zM5 20c-0.265 0-0.52 0.105-0.707 0.293s-0.293 0.442-0.293 0.707v6c0 0.265 0.105 0.52 0.293 0.707s0.442 0.293 0.707 0.293h6c0.265 0 0.52-0.105 0.707-0.293s0.293-0.442 0.293-0.707v-6c0-0.265-0.105-0.52-0.293-0.707s-0.442-0.293-0.707-0.293h-6zM18 21c0-0.796 0.316-1.559 0.879-2.121s1.326-0.879 2.121-0.879h6c0.796 0 1.559 0.316 2.121 0.879s0.879 1.326 0.879 2.121v6c0 0.796-0.316 1.559-0.879 2.121s-1.326 0.879-2.121 0.879h-6c-0.796 0-1.559-0.316-2.121-0.879s-0.879-1.326-0.879-2.121v-6zM21 20c-0.265 0-0.52 0.105-0.707 0.293s-0.293 0.442-0.293 0.707v6c0 0.265 0.105 0.52 0.293 0.707s0.442 0.293 0.707 0.293h6c0.265 0 0.52-0.105 0.707-0.293s0.293-0.442 0.293-0.707v-6c0-0.265-0.105-0.52-0.293-0.707s-0.442-0.293-0.707-0.293h-6z"/></symbol>
<symbol id="icon-grid-1x2" viewBox="0 0 32 32"><path d="M12 2h-10v28h10v-28zM30 2h-10v10h10v-10zM30 20v10h-10v-10h10zM0 2c0-0.53 0.211-1.039 0.586-1.414s0.884-0.586 1.414-0.586h10c0.53 0 1.039 0.211 1.414 0.586s0.586 0.884 0.586 1.414v28c0 0.53-0.211 1.039-0.586 1.414s-0.884 0.586-1.414 0.586h-10c-0.53 0-1.039-0.211-1.414-0.586s-0.586-0.884-0.586-1.414v-28zM18 2c0-0.53 0.211-1.039 0.586-1.414s0.884-0.586 1.414-0.586h10c0.53 0 1.039 0.211 1.414 0.586s0.586 0.884 0.586 1.414v10c0 0.53-0.211 1.039-0.586 1.414s-0.884 0.586-1.414 0.586h-10c-0.53 0-1.039-0.211-1.414-0.586s-0.586-0.884-0.586-1.414v-10zM20 18c-0.53 0-1.039 0.211-1.414 0.586s-0.586 0.884-0.586 1.414v10c0 0.53 0.211 1.039 0.586 1.414s0.884 0.586 1.414 0.586h10c0.53 0 1.039-0.211 1.414-0.586s0.586-0.884 0.586-1.414v-10c0-0.53-0.211-1.039-0.586-1.414s-0.884-0.586-1.414-0.586h-10z"/></symbol>
<symbol id="icon-shower" viewBox="0 0 32 32"><path d="M8 29.5c0 0.297-0.088 0.587-0.253 0.833s-0.399 0.439-0.673 0.552-0.576 0.143-0.867 0.085c-0.291-0.058-0.558-0.201-0.768-0.41s-0.353-0.477-0.411-0.768c-0.058-0.291-0.028-0.593 0.085-0.867s0.306-0.508 0.552-0.673c0.247-0.165 0.537-0.253 0.833-0.253 0.398 0 0.779 0.158 1.061 0.439s0.439 0.663 0.439 1.061zM10.5 24c-0.297 0-0.587 0.088-0.833 0.253s-0.439 0.399-0.552 0.673c-0.114 0.274-0.143 0.576-0.085 0.867s0.201 0.558 0.411 0.768c0.21 0.21 0.477 0.353 0.768 0.41s0.592 0.028 0.867-0.085 0.508-0.306 0.673-0.552c0.165-0.247 0.253-0.537 0.253-0.833 0-0.398-0.158-0.779-0.439-1.061s-0.663-0.439-1.061-0.439zM2.5 24c-0.297 0-0.587 0.088-0.833 0.253s-0.439 0.399-0.552 0.673c-0.114 0.274-0.143 0.576-0.085 0.867s0.201 0.558 0.411 0.768c0.21 0.21 0.477 0.353 0.768 0.41s0.593 0.028 0.867-0.085c0.274-0.113 0.508-0.306 0.673-0.552s0.253-0.537 0.253-0.833c0-0.398-0.158-0.779-0.439-1.061s-0.663-0.439-1.061-0.439zM6.5 20c-0.297 0-0.587 0.088-0.833 0.253s-0.439 0.399-0.552 0.673c-0.114 0.274-0.143 0.576-0.085 0.867s0.201 0.558 0.411 0.768c0.21 0.21 0.477 0.353 0.768 0.41s0.593 0.028 0.867-0.085c0.274-0.113 0.508-0.306 0.673-0.552s0.253-0.537 0.253-0.833c0-0.398-0.158-0.779-0.439-1.061s-0.663-0.439-1.061-0.439zM32 5c0 0.265-0.105 0.52-0.293 0.707s-0.442 0.293-0.707 0.293h-3.586l-3.481 3.482-2.707 15.849c-0.061 0.362-0.22 0.701-0.461 0.978s-0.553 0.483-0.902 0.595c-0.35 0.112-0.724 0.125-1.080 0.039s-0.683-0.27-0.943-0.529l-12.25-12.25c-0.26-0.26-0.443-0.586-0.53-0.944s-0.073-0.732 0.039-1.082c0.112-0.35 0.319-0.662 0.597-0.903s0.617-0.399 0.98-0.46l15.842-2.709 3.775-3.775c0.093-0.093 0.203-0.166 0.325-0.217s0.252-0.076 0.383-0.076h4c0.265 0 0.52 0.105 0.707 0.293s0.293 0.442 0.293 0.707zM21.776 10.224l-14.776 2.526 12.25 12.25 2.526-14.776z"/></symbol>
<symbol id="icon-tv" viewBox="0 0 32 32"><path d="M0 8c0 0 0-4 4-4h24c0 0 4 0 4 4v12c0 0 0 4-4 4h-8c0 1.333 0.167 2.333 0.5 3h1.5c0.265 0 0.52 0.105 0.707 0.293s0.293 0.442 0.293 0.707c0 0.265-0.105 0.52-0.293 0.707s-0.442 0.293-0.707 0.293h-12c-0.265 0-0.52-0.105-0.707-0.293s-0.293-0.442-0.293-0.707c0-0.265 0.105-0.52 0.293-0.707s0.442-0.293 0.707-0.293h1.5c0.333-0.667 0.5-1.667 0.5-3h-8c0 0-4 0-4-4v-12zM2.796 6.29c-0.22 0.153-0.395 0.361-0.508 0.604-0.168 0.353-0.266 0.735-0.288 1.126v11.98c0 0.65 0.156 1.004 0.29 1.204 0.14 0.208 0.341 0.377 0.604 0.508 0.338 0.162 0.703 0.259 1.076 0.286l0.050 0.002h23.98c0.65 0 1.004-0.156 1.204-0.29 0.22-0.153 0.395-0.361 0.508-0.604 0.162-0.338 0.259-0.703 0.286-1.076l0.002-0.050v-11.98c0-0.65-0.156-1.004-0.29-1.204-0.153-0.22-0.361-0.395-0.604-0.508-0.353-0.168-0.736-0.266-1.126-0.288h-23.98c-0.65 0-1.004 0.156-1.204 0.29z"/></symbol>
<symbol id="icon-wind" viewBox="0 0 32 32"><path d="M25 4c-1.326 0-2.598 0.527-3.535 1.464s-1.465 2.209-1.465 3.536c0 0.265-0.105 0.52-0.293 0.707s-0.442 0.293-0.707 0.293c-0.265 0-0.52-0.105-0.707-0.293s-0.293-0.442-0.293-0.707c0-1.384 0.41-2.738 1.18-3.889s1.862-2.048 3.142-2.578c1.279-0.53 2.687-0.668 4.044-0.398s2.605 0.937 3.584 1.916c0.979 0.979 1.646 2.226 1.916 3.584s0.131 2.765-0.398 4.044c-0.53 1.279-1.427 2.372-2.578 3.142s-2.505 1.18-3.889 1.18h-24c-0.265 0-0.52-0.105-0.707-0.293s-0.293-0.442-0.293-0.707c0-0.265 0.105-0.52 0.293-0.707s0.442-0.293 0.707-0.293h24c1.326 0 2.598-0.527 3.535-1.464s1.465-2.209 1.465-3.536-0.527-2.598-1.465-3.536c-0.938-0.938-2.209-1.464-3.535-1.464zM11 6c-0.53 0-1.039 0.211-1.414 0.586s-0.586 0.884-0.586 1.414c0 0.265-0.105 0.52-0.293 0.707s-0.442 0.293-0.707 0.293c-0.265 0-0.52-0.105-0.707-0.293s-0.293-0.442-0.293-0.707c0-0.791 0.235-1.564 0.674-2.222s1.064-1.17 1.795-1.473c0.731-0.303 1.535-0.382 2.311-0.228s1.489 0.535 2.048 1.095 0.94 1.272 1.095 2.048c0.154 0.776 0.075 1.58-0.228 2.311s-0.815 1.356-1.473 1.795-1.431 0.674-2.222 0.674h-10c-0.265 0-0.52-0.105-0.707-0.293s-0.293-0.442-0.293-0.707c0-0.265 0.105-0.52 0.293-0.707s0.442-0.293 0.707-0.293h10c0.53 0 1.039-0.211 1.414-0.586s0.586-0.884 0.586-1.414c0-0.53-0.211-1.039-0.586-1.414s-0.884-0.586-1.414-0.586zM0 19c0-0.265 0.105-0.52 0.293-0.707s0.442-0.293 0.707-0.293h20.084c1.187 0 2.347 0.352 3.333 1.011s1.756 1.596 2.21 2.693c0.454 1.096 0.573 2.303 0.341 3.467s-0.803 2.233-1.642 3.072c-0.839 0.839-1.908 1.411-3.072 1.642s-2.37 0.113-3.467-0.341-2.033-1.223-2.693-2.21c-0.659-0.987-1.011-2.147-1.011-3.333 0-0.265 0.105-0.52 0.293-0.707s0.442-0.293 0.707-0.293c0.265 0 0.52 0.105 0.707 0.293s0.293 0.442 0.293 0.707c0 0.791 0.235 1.564 0.674 2.222s1.064 1.171 1.795 1.473c0.731 0.303 1.535 0.382 2.311 0.228s1.489-0.535 2.048-1.095 0.94-1.272 1.095-2.048c0.154-0.776 0.075-1.58-0.228-2.311s-0.815-1.356-1.473-1.795c-0.658-0.439-1.431-0.674-2.222-0.674h-20.084c-0.265 0-0.52-0.105-0.707-0.293s-0.293-0.442-0.293-0.707z"/></symbol>
<symbol id="icon-diagram" viewBox="0 0 32 32"><path d="M12 7c0-0.796 0.316-1.559 0.879-2.121s1.326-0.879 2.121-0.879h2c0.796 0 1.559 0.316 2.121 0.879s0.879 1.326 0.879 2.121v2c0 0.796-0.316 1.559-0.879 2.121s-1.326 0.879-2.121 0.879v2h11c0.265 0 0.52 0.105 0.707 0.293s0.293 0.442 0.293 0.707v2c0 0.265-0.105 0.52-0.293 0.707s-0.442 0.293-0.707 0.293c-0.265 0-0.52-0.105-0.707-0.293s-0.293-0.442-0.293-0.707v-1h-10v1c0 0.265-0.105 0.52-0.293 0.707s-0.442 0.293-0.707 0.293c-0.265 0-0.52-0.105-0.707-0.293s-0.293-0.442-0.293-0.707v-1h-10v1c0 0.265-0.105 0.52-0.293 0.707s-0.442 0.293-0.707 0.293c-0.265 0-0.52-0.105-0.707-0.293s-0.293-0.442-0.293-0.707v-2c0-0.265 0.105-0.52 0.293-0.707s0.442-0.293 0.707-0.293h11v-2c-0.796 0-1.559-0.316-2.121-0.879s-0.879-1.326-0.879-2.121v-2zM17 10c0.265 0 0.52-0.105 0.707-0.293s0.293-0.442 0.293-0.707v-2c0-0.265-0.105-0.52-0.293-0.707s-0.442-0.293-0.707-0.293h-2c-0.265 0-0.52 0.105-0.707 0.293s-0.293 0.442-0.293 0.707v2c0 0.265 0.105 0.52 0.293 0.707s0.442 0.293 0.707 0.293h2zM0 23c0-0.796 0.316-1.559 0.879-2.121s1.326-0.879 2.121-0.879h2c0.796 0 1.559 0.316 2.121 0.879s0.879 1.326 0.879 2.121v2c0 0.796-0.316 1.559-0.879 2.121s-1.326 0.879-2.121 0.879h-2c-0.796 0-1.559-0.316-2.121-0.879s-0.879-1.326-0.879-2.121v-2zM3 22c-0.265 0-0.52 0.105-0.707 0.293s-0.293 0.442-0.293 0.707v2c0 0.265 0.105 0.52 0.293 0.707s0.442 0.293 0.707 0.293h2c0.265 0 0.52-0.105 0.707-0.293s0.293-0.442 0.293-0.707v-2c0-0.265-0.105-0.52-0.293-0.707s-0.442-0.293-0.707-0.293h-2zM12 23c0-0.796 0.316-1.559 0.879-2.121s1.326-0.879 2.121-0.879h2c0.796 0 1.559 0.316 2.121 0.879s0.879 1.326 0.879 2.121v2c0 0.796-0.316 1.559-0.879 2.121s-1.326 0.879-2.121 0.879h-2c-0.796 0-1.559-0.316-2.121-0.879s-0.879-1.326-0.879-2.121v-2zM15 22c-0.265 0-0.52 0.105-0.707 0.293s-0.293 0.442-0.293 0.707v2c0 0.265 0.105 0.52 0.293 0.707s0.442 0.293 0.707 0.293h2c0.265 0 0.52-0.105 0.707-0.293s0.293-0.442 0.293-0.707v-2c0-0.265-0.105-0.52-0.293-0.707s-0.442-0.293-0.707-0.293h-2zM24 23c0-0.796 0.316-1.559 0.879-2.121s1.326-0.879 2.121-0.879h2c0.796 0 1.559 0.316 2.121 0.879s0.879 1.326 0.879 2.121v2c0 0.796-0.316 1.559-0.879 2.121s-1.326 0.879-2.121 0.879h-2c-0.796 0-1.559-0.316-2.121-0.879s-0.879-1.326-0.879-2.121v-2zM27 22c-0.265 0-0.52 0.105-0.707 0.293s-0.293 0.442-0.293 0.707v2c0 0.265 0.105 0.52 0.293 0.707s0.442 0.293 0.707 0.293h2c0.265 0 0.52-0.105 0.707-0.293s0.293-0.442 0.293-0.707v-2c0-0.265-0.105-0.52-0.293-0.707s-0.442-0.293-0.707-0.293h-2z"/></symbol>
<symbol id="icon-cup-hot" viewBox="0 0 32 32"><path d="M1 12c-.15 0-.297.034-.432.098s-.254.159-.347.276c-.094.117-.16.253-.194.399s-.035.297-.003.443l3.304 14.868c.247 1.11.865 2.104 1.752 2.816s1.991 1.1 3.128 1.1h11.584c1.138 0 2.241-.388 3.128-1.1s1.505-1.705 1.752-2.816l.262-1.18c1.53.286 3.111-.033 4.41-.891s2.213-2.186 2.551-3.706c.337-1.519.071-3.11-.742-4.437s-2.111-2.285-3.618-2.674l.442-1.98c.032-.146.031-.298-.003-.443s-.1-.282-.194-.399c-.094-.117-.212-.211-.347-.276s-.283-.098-.432-.098h-26zM26 25c-.212 0-.423-.017-.632-.05l1.734-7.796c.925.268 1.722.86 2.246 1.669s.738 1.778.604 2.732c-.134.954-.607 1.827-1.333 2.46s-1.656.983-2.619.985zM5.28 27.65l-3.034-13.65h23.508l-3.034 13.65c-.148.666-.519 1.262-1.051 1.69s-1.195.66-1.877.66h-11.584c-.683 0-1.345-.233-1.877-.66s-.903-1.023-1.051-1.69zM8.8 1.6l-.006.008-.028.038c-.146.2-.282.407-.408.62-.107.171-.202.349-.282.534-.052.12-.068.184-.074.206v.008c.023.177.085.346.182.496.15.266.356.544.616.89l.02.024c.236.316.52.694.74 1.086.224.4.44.91.44 1.49 0 .376-.13.736-.238.988-.116.268-.251.527-.404.776-.157.262-.326.517-.506.764l-.036.05-.01.016-.004.004c-.159.212-.396.353-.658.391s-.529-.03-.742-.189-.353-.396-.391-.658c-.038-.263.03-.529.189-.742l.006-.008.028-.038c.146-.2.282-.407.408-.62.107-.171.202-.349.282-.534.052-.12.068-.184.074-.206-.021-.179-.083-.352-.18-.504-.186-.31-.392-.608-.618-.89l-.02-.024c-.27-.345-.517-.708-.74-1.086-.272-.451-.424-.964-.44-1.49 0-.376.13-.736.238-.988.118-.276.268-.548.404-.776.159-.261.328-.516.506-.764l.05-.07c.159-.212.396-.353.658-.391s.529.03.742.189c.212.159.353.396.391.658s-.03.529-.189.742zM14.8 1.6l-.006.008-.028.038c-.146.2-.282.407-.408.62-.107.171-.202.349-.282.534-.052.12-.068.184-.074.206v.008c.023.177.085.346.182.496.15.266.356.544.616.89l.02.024c.236.316.52.694.74 1.086.224.4.44.91.44 1.49 0 .376-.13.736-.238.988-.116.268-.251.527-.404.776-.157.262-.326.517-.506.764l-.036.05-.01.016-.004.004c-.159.212-.396.353-.658.391s-.529-.03-.742-.189-.353-.396-.391-.658c-.038-.263.03-.529.189-.742l.006-.008.028-.038c.146-.2.282-.407.408-.62.107-.171.202-.349.282-.534.052-.12.068-.184.074-.206-.021-.179-.083-.352-.18-.504-.186-.31-.392-.608-.618-.89l-.02-.024c-.27-.345-.517-.708-.74-1.086-.272-.451-.424-.964-.44-1.49 0-.376.13-.736.238-.988.118-.276.268-.548.404-.776.159-.261.328-.516.506-.764l.05-.07c.159-.212.396-.353.658-.391s.529.03.742.189.353.396.391.658c.038.263-.03.529-.189.742zM20.8 1.6l-.006.008-.028.038c-.145.2-.282.407-.408.62-.107.171-.202.349-.282.534-.052.12-.068.184-.074.206v.008c.023.177.085.346.182.496.15.266.356.544.616.89l.02.024c.236.316.52.694.74 1.086.224.4.44.91.44 1.49 0 .376-.13.736-.238.988-.116.268-.251.527-.404.776-.156.262-.324.517-.504.764l-.038.05-.01.016-.004.004c-.159.212-.396.353-.658.391s-.529-.03-.742-.189-.353-.396-.391-.658c-.038-.263.03-.529.189-.742l.006-.008.028-.038c.145-.2.282-.407.408-.62.107-.171.202-.349.282-.534.052-.12.068-.184.074-.206-.021-.179-.083-.352-.18-.504-.186-.31-.392-.608-.618-.89l-.02-.024c-.27-.345-.517-.708-.74-1.086-.272-.451-.424-.964-.44-1.49 0-.376.13-.736.238-.988.118-.276.268-.548.404-.776.159-.261.328-.516.506-.764l.05-.07c.159-.212.396-.353.658-.391s.529.03.742.189.353.396.391.658c.038.263-.03.529-.189.742z"/></symbol>
<symbol id="icon-engine" viewBox="0 0 32 32"><path d="M6 5c0-0.265 0.105-0.52 0.293-0.707s0.442-0.293 0.707-0.293h10c0.265 0 0.52 0.105 0.707 0.293s0.293 0.442 0.293 0.707v10c0 0.265-0.105 0.52-0.293 0.707s-0.442 0.293-0.707 0.293h-10c-0.265 0-0.52-0.105-0.707-0.293s-0.293-0.442-0.293-0.707v-10z"></path><path d="M2 4c0-1.061 0.421-2.078 1.172-2.828s1.768-1.172 2.828-1.172h12c1.061 0 2.078 0.421 2.828 1.172s1.172 1.768 1.172 2.828v16c1.061 0 2.078 0.421 2.828 1.172s1.172 1.768 1.172 2.828v1c0 0.265 0.105 0.52 0.293 0.707s0.442 0.293 0.707 0.293 0.52-0.105 0.707-0.293c0.188-0.188 0.293-0.442 0.293-0.707v-9h-1c-0.265 0-0.52-0.105-0.707-0.293s-0.293-0.442-0.293-0.707v-6.25c0-0.265 0.105-0.52 0.293-0.707s0.442-0.293 0.707-0.293h2.99c-0.022-0.952-0.106-1.788-0.402-2.444-0.158-0.381-0.435-0.702-0.788-0.916-0.368-0.22-0.928-0.39-1.8-0.39-0.265 0-0.52-0.105-0.707-0.293s-0.293-0.442-0.293-0.707 0.105-0.52 0.293-0.707c0.188-0.188 0.442-0.293 0.707-0.293 1.128-0.003 2.069 0.221 2.824 0.672 0.766 0.456 1.268 1.102 1.588 1.814 0.59 1.31 0.588 2.93 0.588 4.162v6.35c0 0.132-0.025 0.262-0.076 0.383s-0.124 0.232-0.217 0.325c-0.093 0.093-0.203 0.167-0.325 0.217s-0.252 0.076-0.383 0.076h-1v9c0 0.796-0.316 1.559-0.879 2.121s-1.326 0.879-2.121 0.879-1.559-0.316-2.121-0.879c-0.563-0.563-0.879-1.326-0.879-2.121v-1c0-0.53-0.211-1.039-0.586-1.414s-0.884-0.586-1.414-0.586v8h1c0.265 0 0.52 0.105 0.707 0.293s0.293 0.442 0.293 0.707-0.105 0.52-0.293 0.707c-0.188 0.188-0.442 0.293-0.707 0.293h-22c-0.265 0-0.52-0.105-0.707-0.293s-0.293-0.442-0.293-0.707 0.105-0.52 0.293-0.707c0.188-0.188 0.442-0.293 0.707-0.293h1v-26zM20 4c0-0.53-0.211-1.039-0.586-1.414s-0.884-0.586-1.414-0.586h-12c-0.53 0-1.039 0.211-1.414 0.586s-0.586 0.884-0.586 1.414v26h16v-26z"></path></symbol>
<symbol id="icon-radio" viewBox="0 0 32 32"><path d="M14 5c0-0.265 0.105-0.52 0.293-0.707s0.442-0.293 0.707-0.293h14c0.265 0 0.52 0.105 0.707 0.293s0.293 0.442 0.293 0.707v2c0 0.265-0.105 0.52-0.293 0.707s-0.442 0.293-0.707 0.293h-14c-0.265 0-0.52-0.105-0.707-0.293s-0.293-0.442-0.293-0.707v-2zM0 24c0-1.591 0.632-3.117 1.757-4.243s2.651-1.757 4.243-1.757 3.117 0.632 4.243 1.757c1.125 1.125 1.757 2.651 1.757 4.243s-0.632 3.117-1.757 4.243c-1.125 1.125-2.651 1.757-4.243 1.757s-3.117-0.632-4.243-1.757c-1.125-1.125-1.757-2.651-1.757-4.243zM14 21c0-0.265 0.105-0.52 0.293-0.707s0.442-0.293 0.707-0.293h14c0.265 0 0.52 0.105 0.707 0.293s0.293 0.442 0.293 0.707v2c0 0.265-0.105 0.52-0.293 0.707s-0.442 0.293-0.707 0.293h-14c-0.265 0-0.52-0.105-0.707-0.293s-0.293-0.442-0.293-0.707v-2zM14 11c0-0.265 0.105-0.52 0.293-0.707s0.442-0.293 0.707-0.293h10c0.265 0 0.52 0.105 0.707 0.293s0.293 0.442 0.293 0.707-0.105 0.52-0.293 0.707c-0.188 0.188-0.442 0.293-0.707 0.293h-10c-0.265 0-0.52-0.105-0.707-0.293s-0.293-0.442-0.293-0.707zM14 27c0-0.265 0.105-0.52 0.293-0.707s0.442-0.293 0.707-0.293h10c0.265 0 0.52 0.105 0.707 0.293s0.293 0.442 0.293 0.707-0.105 0.52-0.293 0.707c-0.188 0.188-0.442 0.293-0.707 0.293h-10c-0.265 0-0.52-0.105-0.707-0.293s-0.293-0.442-0.293-0.707zM6 2c-0.788 0-1.568 0.155-2.296 0.457s-1.389 0.744-1.947 1.301c-0.557 0.557-0.999 1.219-1.301 1.947s-0.457 1.508-0.457 2.296c0 0.788 0.155 1.568 0.457 2.296s0.744 1.389 1.301 1.947c0.557 0.557 1.219 0.999 1.947 1.301s1.508 0.457 2.296 0.457c1.591 0 3.117-0.632 4.243-1.757s1.757-2.651 1.757-4.243c0-1.591-0.632-3.117-1.757-4.243s-2.651-1.757-4.243-1.757zM6 11c-0.796 0-1.559-0.316-2.121-0.879s-0.879-1.326-0.879-2.121c0-0.796 0.316-1.559 0.879-2.121s1.326-0.879 2.121-0.879c0.796 0 1.559 0.316 2.121 0.879s0.879 1.326 0.879 2.121c0 0.796-0.316 1.559-0.879 2.121s-1.326 0.879-2.121 0.879z"></path></symbol>
</defs></svg>